<mxfile host="65bd71144e">
    <diagram id="WmEbXahuBkuJjyQZ1Jeq" name="Register">
        <mxGraphModel dx="869" dy="5625" grid="1" gridSize="10" guides="1" tooltips="1" connect="1" arrows="1" fold="1" page="1" pageScale="1" pageWidth="1169" pageHeight="827" math="0" shadow="0">
            <root>
                <mxCell id="0"/>
                <mxCell id="1" parent="0"/>
                <mxCell id="2" value="Sign Up" style="rounded=0;whiteSpace=wrap;html=1;align=center;fillColor=#1ba1e2;fontColor=#ffffff;strokeColor=#006EAF;" vertex="1" parent="1">
                    <mxGeometry x="280" y="-4920" width="120" height="60" as="geometry"/>
                </mxCell>
                <mxCell id="3" value="Via Google" style="rounded=0;whiteSpace=wrap;html=1;gradientColor=none;" vertex="1" parent="1">
                    <mxGeometry x="150" y="-4790" width="120" height="60" as="geometry"/>
                </mxCell>
                <mxCell id="4" value="Via Apple" style="rounded=0;whiteSpace=wrap;html=1;gradientColor=none;" vertex="1" parent="1">
                    <mxGeometry y="-4788" width="120" height="60" as="geometry"/>
                </mxCell>
                <mxCell id="5" value="Via Personal Data" style="rounded=0;whiteSpace=wrap;html=1;gradientColor=none;" vertex="1" parent="1">
                    <mxGeometry x="430" y="-4788" width="120" height="60" as="geometry"/>
                </mxCell>
                <mxCell id="9" value="" style="edgeStyle=elbowEdgeStyle;elbow=vertical;endArrow=classic;html=1;curved=0;rounded=0;endSize=8;startSize=8;entryX=0.5;entryY=0;entryDx=0;entryDy=0;exitX=0.5;exitY=1;exitDx=0;exitDy=0;" edge="1" parent="1" source="2" target="5">
                    <mxGeometry width="50" height="50" relative="1" as="geometry">
                        <mxPoint x="440" y="-4878" as="sourcePoint"/>
                        <mxPoint x="450" y="-4928" as="targetPoint"/>
                    </mxGeometry>
                </mxCell>
                <mxCell id="10" value="" style="edgeStyle=elbowEdgeStyle;elbow=vertical;endArrow=classic;html=1;curved=0;rounded=0;endSize=8;startSize=8;entryX=0.5;entryY=0;entryDx=0;entryDy=0;" edge="1" parent="1" target="3">
                    <mxGeometry width="50" height="50" relative="1" as="geometry">
                        <mxPoint x="340" y="-4858" as="sourcePoint"/>
                        <mxPoint x="360" y="-4778" as="targetPoint"/>
                    </mxGeometry>
                </mxCell>
                <mxCell id="12" value="Google Integration form" style="rounded=1;whiteSpace=wrap;html=1;gradientColor=none;" vertex="1" parent="1">
                    <mxGeometry x="150" y="-4668" width="120" height="60" as="geometry"/>
                </mxCell>
                <mxCell id="13" value="" style="edgeStyle=elbowEdgeStyle;elbow=vertical;endArrow=classic;html=1;curved=0;rounded=0;endSize=8;startSize=8;exitX=0.5;exitY=1;exitDx=0;exitDy=0;entryX=0.5;entryY=0;entryDx=0;entryDy=0;" edge="1" parent="1" source="3" target="12">
                    <mxGeometry width="50" height="50" relative="1" as="geometry">
                        <mxPoint x="190" y="-4628" as="sourcePoint"/>
                        <mxPoint x="240" y="-4678" as="targetPoint"/>
                    </mxGeometry>
                </mxCell>
                <mxCell id="14" value="Successful?" style="html=1;whiteSpace=wrap;aspect=fixed;shape=isoRectangle;fillColor=#f0a30a;strokeColor=#BD7000;fontColor=#000000;" vertex="1" parent="1">
                    <mxGeometry x="135" y="-4528" width="150" height="90" as="geometry"/>
                </mxCell>
                <mxCell id="15" value="" style="edgeStyle=elbowEdgeStyle;elbow=vertical;endArrow=classic;html=1;curved=0;rounded=0;endSize=8;startSize=8;exitX=0.5;exitY=1;exitDx=0;exitDy=0;entryX=0.5;entryY=0;entryDx=0;entryDy=0;entryPerimeter=0;" edge="1" parent="1" source="12" target="14">
                    <mxGeometry width="50" height="50" relative="1" as="geometry">
                        <mxPoint x="190" y="-4538" as="sourcePoint"/>
                        <mxPoint x="250" y="-4548" as="targetPoint"/>
                    </mxGeometry>
                </mxCell>
                <mxCell id="16" value="Create basic Account" style="ellipse;whiteSpace=wrap;html=1;aspect=fixed;fillColor=#1ba1e2;fontColor=#ffffff;strokeColor=#006EAF;" vertex="1" parent="1">
                    <mxGeometry x="400" y="-4480" width="80" height="80" as="geometry"/>
                </mxCell>
                <mxCell id="18" value="" style="edgeStyle=elbowEdgeStyle;elbow=horizontal;endArrow=classic;html=1;curved=0;rounded=0;endSize=8;startSize=8;entryX=0;entryY=0.5;entryDx=0;entryDy=0;exitX=0.5;exitY=1;exitDx=0;exitDy=0;exitPerimeter=0;" edge="1" parent="1" source="14" target="16">
                    <mxGeometry width="50" height="50" relative="1" as="geometry">
                        <mxPoint x="290" y="-4478" as="sourcePoint"/>
                        <mxPoint x="370" y="-4478" as="targetPoint"/>
                    </mxGeometry>
                </mxCell>
                <mxCell id="20" value="Send welcome email with verification details" style="rounded=0;whiteSpace=wrap;html=1;gradientColor=none;" vertex="1" parent="1">
                    <mxGeometry x="140" y="-4340" width="120" height="60" as="geometry"/>
                </mxCell>
                <mxCell id="21" value="" style="edgeStyle=elbowEdgeStyle;elbow=vertical;endArrow=classic;html=1;curved=0;rounded=0;endSize=8;startSize=8;exitX=0.578;exitY=1.003;exitDx=0;exitDy=0;exitPerimeter=0;entryX=0.5;entryY=0;entryDx=0;entryDy=0;" edge="1" parent="1" source="16" target="20">
                    <mxGeometry width="50" height="50" relative="1" as="geometry">
                        <mxPoint x="336" y="-4250" as="sourcePoint"/>
                        <mxPoint x="386" y="-4300" as="targetPoint"/>
                    </mxGeometry>
                </mxCell>
                <mxCell id="22" value="" style="edgeStyle=elbowEdgeStyle;elbow=vertical;endArrow=classic;html=1;curved=0;rounded=0;endSize=8;startSize=8;entryX=0.5;entryY=0;entryDx=0;entryDy=0;" edge="1" parent="1" target="4">
                    <mxGeometry width="50" height="50" relative="1" as="geometry">
                        <mxPoint x="340" y="-4860" as="sourcePoint"/>
                        <mxPoint x="350" y="-4690" as="targetPoint"/>
                    </mxGeometry>
                </mxCell>
                <mxCell id="23" value="Email Verification Process" style="rounded=1;whiteSpace=wrap;html=1;gradientColor=none;" vertex="1" parent="1">
                    <mxGeometry x="310" y="-4340" width="120" height="60" as="geometry"/>
                </mxCell>
                <mxCell id="24" value="Successful?" style="html=1;whiteSpace=wrap;aspect=fixed;shape=isoRectangle;fillColor=#f0a30a;fontColor=#000000;strokeColor=#BD7000;" vertex="1" parent="1">
                    <mxGeometry x="560" y="-4280" width="150" height="90" as="geometry"/>
                </mxCell>
                <mxCell id="26" value="Send reget email with explaination" style="rounded=0;whiteSpace=wrap;html=1;gradientColor=none;" vertex="1" parent="1">
                    <mxGeometry x="870" y="-4300" width="120" height="60" as="geometry"/>
                </mxCell>
                <mxCell id="28" value="" style="edgeStyle=elbowEdgeStyle;elbow=horizontal;endArrow=classic;html=1;curved=0;rounded=0;endSize=8;startSize=8;entryX=0;entryY=0.5;entryDx=0;entryDy=0;" edge="1" parent="1" source="20" target="23">
                    <mxGeometry width="50" height="50" relative="1" as="geometry">
                        <mxPoint x="800" y="-4410" as="sourcePoint"/>
                        <mxPoint x="580" y="-4250" as="targetPoint"/>
                    </mxGeometry>
                </mxCell>
                <mxCell id="30" value="" style="edgeStyle=elbowEdgeStyle;elbow=horizontal;endArrow=classic;html=1;curved=0;rounded=0;endSize=8;startSize=8;exitX=1;exitY=0.5;exitDx=0;exitDy=0;entryX=-0.004;entryY=0.513;entryDx=0;entryDy=0;entryPerimeter=0;" edge="1" parent="1" source="23" target="24">
                    <mxGeometry width="50" height="50" relative="1" as="geometry">
                        <mxPoint x="800" y="-4410" as="sourcePoint"/>
                        <mxPoint x="850" y="-4460" as="targetPoint"/>
                    </mxGeometry>
                </mxCell>
                <mxCell id="31" value="" style="edgeStyle=elbowEdgeStyle;elbow=horizontal;endArrow=classic;html=1;curved=0;rounded=0;endSize=8;startSize=8;exitX=1.009;exitY=0.487;exitDx=0;exitDy=0;exitPerimeter=0;entryX=-0.008;entryY=0.397;entryDx=0;entryDy=0;entryPerimeter=0;" edge="1" parent="1" source="24" target="26">
                    <mxGeometry width="50" height="50" relative="1" as="geometry">
                        <mxPoint x="800" y="-4410" as="sourcePoint"/>
                        <mxPoint x="850" y="-4460" as="targetPoint"/>
                    </mxGeometry>
                </mxCell>
            </root>
        </mxGraphModel>
    </diagram>
</mxfile>